<svg width="40" height="40" viewBox="0 0 40 40" fill="none" xmlns="http://www.w3.org/2000/svg">
<g clip-path="url(#clip0_192_896)">
<path d="M12.3887 4.79492C12.3887 5.5789 11.8382 6.20477 11.1484 6.40918C10.6154 6.56714 10.1036 6.77476 9.61816 7.02637C8.98961 7.35216 8.17465 7.29069 7.62988 6.74609L6.10938 5.22559L4.22559 7.10938L5.69629 8.58008C6.25203 9.13582 6.30445 9.97057 5.95801 10.6035C5.68594 11.1003 5.46059 11.6266 5.28809 12.1758C5.07542 12.8529 4.45443 13.3887 3.68164 13.3887H1.625V16.0527H3.63184C4.41581 16.0527 5.04171 16.6041 5.24609 17.2939C5.41372 17.8596 5.63744 18.4014 5.91016 18.9131C6.24635 19.5439 6.18893 20.3687 5.63867 20.9189L4.22559 22.332L6.10938 24.2158L7.52246 22.8027C8.07278 22.2524 8.89839 22.196 9.5293 22.5322C10.0409 22.8049 10.5828 23.0277 11.1484 23.1953C11.8382 23.3997 12.3885 24.0257 12.3887 24.8096V26.8174H15.0527V24.7607C15.0527 23.9881 15.5887 23.3671 16.2656 23.1543C16.8148 22.9818 17.3411 22.7565 17.8379 22.4844C18.4708 22.1377 19.3055 22.1896 19.8613 22.7451L21.332 24.2158L23.2158 22.332L21.6963 20.8125C21.1515 20.2678 21.0902 19.4528 21.416 18.8242C21.6677 18.3387 21.8752 17.826 22.0332 17.293C22.2378 16.6035 22.8637 16.0527 23.6475 16.0527H25.8174V13.3887H23.5977C22.8249 13.3887 22.2039 12.8529 21.9912 12.1758C21.8289 11.6591 21.6199 11.163 21.3691 10.6924C21.0329 10.0615 21.0893 9.23587 21.6396 8.68555L23.2158 7.10938L21.332 5.22559L19.7559 6.80176C19.2056 7.35203 18.3809 7.40943 17.75 7.07324C17.2792 6.82234 16.7826 6.61354 16.2656 6.45117C15.5886 6.23843 15.0528 5.6174 15.0527 4.84473V2.625H12.3887V4.79492ZM16.3027 4.84473C16.3028 5.00968 16.4231 5.18947 16.6406 5.25781C17.232 5.44356 17.7997 5.68289 18.3379 5.96973C18.5405 6.07768 18.7546 6.03546 18.8721 5.91797L20.7754 4.01562L20.835 3.96094C21.1239 3.72543 21.5413 3.72538 21.8301 3.96094L21.8896 4.01562L24.4268 6.55273L24.4805 6.6123C24.733 6.92176 24.7154 7.37832 24.4268 7.66699L22.5234 9.57031C22.4062 9.68789 22.3638 9.90211 22.4717 10.1045C22.7585 10.6427 22.9979 11.2104 23.1836 11.8018C23.252 12.0192 23.4327 12.1387 23.5977 12.1387H26.2793C26.7143 12.1388 27.0672 12.4917 27.0674 12.9268V16.5146C27.0674 16.9498 26.7144 17.3026 26.2793 17.3027H23.6475C23.4803 17.3027 23.2974 17.4264 23.2314 17.6484C23.0506 18.2584 22.8131 18.8444 22.5254 19.3994C22.421 19.6008 22.4637 19.8123 22.5801 19.9287L24.4268 21.7754C24.7153 22.0641 24.7331 22.5207 24.4805 22.8301L24.4268 22.8896L21.8896 25.4268C21.582 25.7343 21.0832 25.7343 20.7754 25.4268L18.9775 23.6289C18.8589 23.5105 18.6418 23.4697 18.4385 23.5811C17.8706 23.8921 17.2689 24.1493 16.6406 24.3467C16.4231 24.415 16.3027 24.5958 16.3027 24.7607V27.2793C16.3026 27.7144 15.9498 28.0674 15.5146 28.0674H11.9268C11.4918 28.0672 11.1388 27.7143 11.1387 27.2793V24.8096C11.1385 24.6426 11.0157 24.4604 10.7939 24.3945C10.1466 24.2028 9.52653 23.9466 8.94141 23.6348C8.73904 23.5269 8.52481 23.5693 8.40723 23.6865L6.66699 25.4268C6.37831 25.7154 5.92174 25.733 5.6123 25.4805L5.55273 25.4268L3.01562 22.8896C2.70806 22.582 2.70789 22.0832 3.01562 21.7754L4.75488 20.0352C4.87237 19.9177 4.91459 19.7035 4.80664 19.501C4.4948 18.9159 4.23965 18.2958 4.04785 17.6484C3.982 17.4263 3.79904 17.3027 3.63184 17.3027H1.16309C0.75507 17.3027 0.419303 16.9931 0.378906 16.5957L0.375 16.5146V12.9268C0.375153 12.4916 0.727932 12.1387 1.16309 12.1387H3.68164C3.84662 12.1387 4.02737 12.0193 4.0957 11.8018C4.29307 11.1733 4.55021 10.571 4.86133 10.0029C4.97259 9.79944 4.93104 9.5824 4.8125 9.46387L3.01562 7.66699C2.70782 7.35917 2.70805 6.86042 3.01562 6.55273L5.55273 4.01562L5.6123 3.96094C5.90111 3.72551 6.31849 3.7253 6.60742 3.96094L6.66699 4.01562L8.51367 5.8623C8.63009 5.97855 8.84157 6.02138 9.04297 5.91699C9.59807 5.62927 10.1839 5.39169 10.7939 5.21094C11.0159 5.14499 11.1387 4.96205 11.1387 4.79492V2.16309C11.1387 1.72794 11.4916 1.37516 11.9268 1.375H15.5146L15.5957 1.37891C15.9931 1.4193 16.3027 1.75506 16.3027 2.16309V4.84473Z" fill="black"/>
<path d="M19.6194 14.7209C19.6193 11.4632 16.9786 8.82242 13.7209 8.82242C10.4634 8.82251 7.8226 11.4633 7.82251 14.7209C7.82251 17.9785 10.4633 20.6192 13.7209 20.6193C16.9787 20.6193 19.6194 17.9786 19.6194 14.7209ZM20.8694 14.7209C20.8694 18.6689 17.669 21.8693 13.7209 21.8693C9.77296 21.8692 6.57251 18.6689 6.57251 14.7209C6.5726 10.7729 9.77301 7.57251 13.7209 7.57242C17.669 7.57242 20.8693 10.7729 20.8694 14.7209Z" fill="black"/>
<path d="M17.3362 14.7209C17.3361 12.7243 15.7176 11.1057 13.7209 11.1057C11.7243 11.1057 10.1058 12.7243 10.1057 14.7209C10.1057 16.7176 11.7243 18.3361 13.7209 18.3362C15.7177 18.3362 17.3362 16.7176 17.3362 14.7209ZM18.5862 14.7209C18.5862 17.408 16.408 19.5862 13.7209 19.5862C11.0339 19.5861 8.85571 17.4079 8.85571 14.7209C8.85577 12.0339 11.034 9.85574 13.7209 9.85568C16.408 9.85568 18.5861 12.0339 18.5862 14.7209Z" fill="black"/>
<path d="M7.21191 34C7.21191 33.7929 7.04402 33.625 6.83691 33.625C6.62981 33.625 6.46191 33.7929 6.46191 34C6.46191 34.2071 6.62981 34.375 6.83691 34.375C7.04402 34.375 7.21191 34.2071 7.21191 34ZM8.46191 34C8.46191 34.8975 7.73438 35.625 6.83691 35.625C5.93945 35.625 5.21191 34.8975 5.21191 34C5.21191 33.1025 5.93945 32.375 6.83691 32.375C7.73438 32.375 8.46191 33.1025 8.46191 34Z" fill="black"/>
<path d="M15.2119 34C15.2119 33.7929 15.044 33.625 14.8369 33.625C14.6298 33.625 14.4619 33.7929 14.4619 34C14.4619 34.2071 14.6298 34.375 14.8369 34.375C15.044 34.375 15.2119 34.2071 15.2119 34ZM16.4619 34C16.4619 34.8975 15.7344 35.625 14.8369 35.625C13.9395 35.625 13.2119 34.8975 13.2119 34C13.2119 33.1025 13.9395 32.375 14.8369 32.375C15.7344 32.375 16.4619 33.1025 16.4619 34Z" fill="black"/>
<path d="M23.2119 34C23.2119 33.7929 23.044 33.625 22.8369 33.625C22.6298 33.625 22.4619 33.7929 22.4619 34C22.4619 34.2071 22.6298 34.375 22.8369 34.375C23.044 34.375 23.2119 34.2071 23.2119 34ZM24.4619 34C24.4619 34.8975 23.7344 35.625 22.8369 35.625C21.9395 35.625 21.2119 34.8975 21.2119 34C21.2119 33.1025 21.9395 32.375 22.8369 32.375C23.7344 32.375 24.4619 33.1025 24.4619 34Z" fill="black"/>
<path d="M31.2119 34C31.2119 33.7929 31.044 33.625 30.8369 33.625C30.6298 33.625 30.4619 33.7929 30.4619 34C30.4619 34.2071 30.6298 34.375 30.8369 34.375C31.044 34.375 31.2119 34.2071 31.2119 34ZM32.4619 34C32.4619 34.8975 31.7344 35.625 30.8369 35.625C29.9395 35.625 29.2119 34.8975 29.2119 34C29.2119 33.1025 29.9395 32.375 30.8369 32.375C31.7344 32.375 32.4619 33.1025 32.4619 34Z" fill="black"/>
<path d="M38.2119 32C38.2119 31.7929 38.044 31.625 37.8369 31.625H2C1.79289 31.625 1.625 31.7929 1.625 32V36.5234C1.625 36.7305 1.79289 36.8984 2 36.8984H37.8369C38.044 36.8984 38.2119 36.7305 38.2119 36.5234V32ZM39.4619 36.5234C39.4619 37.4209 38.7344 38.1484 37.8369 38.1484H2C1.10254 38.1484 0.375 37.4209 0.375 36.5234V32C0.375 31.1025 1.10254 30.375 2 30.375H37.8369C38.7344 30.375 39.4619 31.1025 39.4619 32V36.5234Z" fill="black"/>
<path d="M35.42 27C35.42 26.7929 35.2522 26.625 35.045 26.625H32.045C31.8379 26.625 31.67 26.7929 31.67 27V30C31.67 30.2071 31.8379 30.375 32.045 30.375H35.045C35.2522 30.375 35.42 30.2071 35.42 30V27ZM36.67 30C36.67 30.8975 35.9425 31.625 35.045 31.625H32.045C31.1476 31.625 30.42 30.8975 30.42 30V27C30.42 26.1025 31.1476 25.375 32.045 25.375H35.045C35.9425 25.375 36.67 26.1025 36.67 27V30Z" fill="black"/>
<path d="M30.42 27C30.42 26.7929 30.2522 26.625 30.045 26.625H26.045C25.8379 26.625 25.67 26.7929 25.67 27V30C25.67 30.2071 25.8379 30.375 26.045 30.375H30.045C30.2522 30.375 30.42 30.2071 30.42 30V27ZM31.67 30C31.67 30.8975 30.9425 31.625 30.045 31.625H26.045C25.1476 31.625 24.42 30.8975 24.42 30V27C24.42 26.1025 25.1476 25.375 26.045 25.375H30.045C30.9425 25.375 31.67 26.1025 31.67 27V30Z" fill="black"/>
<path d="M33.375 22C33.375 21.7929 33.2071 21.625 33 21.625H29C28.7929 21.625 28.625 21.7929 28.625 22V25C28.625 25.2071 28.7929 25.375 29 25.375H33C33.2071 25.375 33.375 25.2071 33.375 25V22ZM34.625 25C34.625 25.8975 33.8975 26.625 33 26.625H29C28.1025 26.625 27.375 25.8975 27.375 25V22C27.375 21.1025 28.1025 20.375 29 20.375H33C33.8975 20.375 34.625 21.1025 34.625 22V25Z" fill="black"/>
</g>
<defs>
<clipPath id="clip0_192_896">
<rect width="40" height="40" fill="white"/>
</clipPath>
</defs>
</svg>
