<svg width="40" height="40" viewBox="0 0 40 40" fill="none" xmlns="http://www.w3.org/2000/svg">
<path d="M36.7413 11.1674L21.6262 1.09894C21.5253 1.03434 21.4081 1 21.2883 1C21.1686 1 21.0514 1.03434 20.9505 1.09894L2.27602 13.5527C2.1911 13.6091 2.12146 13.6857 2.0733 13.7755C2.02515 13.8654 1.99996 13.9657 2 14.0677V28.0993C2.00004 28.1992 2.02446 28.2976 2.07112 28.3859C2.11778 28.4742 2.18529 28.5497 2.26778 28.606L17.0986 38.9052C17.1462 38.9352 17.1974 38.9587 17.2511 38.9753H17.284C17.3374 38.9918 17.3929 39.0001 17.4488 39C17.5033 38.9999 17.5575 38.9915 17.6095 38.9753C17.6216 38.9788 17.6344 38.9788 17.6465 38.9753C17.6961 38.9601 17.7433 38.9379 17.7866 38.9094L36.7413 26.229C36.827 26.1725 36.8972 26.0953 36.9455 26.0046C36.9937 25.914 37.0184 25.8126 37.0173 25.7099V11.703C37.0208 11.5976 36.9973 11.493 36.949 11.3993C36.9007 11.3056 36.8292 11.2257 36.7413 11.1674ZM21.2842 2.36368L35.1923 11.6206L30.6606 14.6321L16.975 5.23922L21.2842 2.36368ZM17.5765 23.3741C17.5423 23.37 17.5077 23.37 17.4735 23.3741L3.64787 14.1336L10.8985 9.28886L24.5964 18.6817L17.5765 23.3741ZM15.8627 5.989L29.5607 15.3819L25.7005 17.9567L12.0067 8.55144L15.8627 5.989ZM26.3061 19.0278L30.0138 16.556L29.882 22.4471L26.3061 24.7953V19.0278ZM3.2359 15.353L16.8308 24.4163V37.1997L3.2359 27.7739V15.353ZM18.0668 37.2244V24.5193L25.0702 19.8517V25.9406C25.0702 26.1045 25.1353 26.2617 25.2512 26.3776C25.3671 26.4935 25.5243 26.5586 25.6882 26.5586C25.8086 26.5593 25.9264 26.5234 26.026 26.4556L30.8378 23.2999C30.9222 23.2457 30.992 23.1714 31.0408 23.0837C31.0897 22.996 31.1162 22.8977 31.1179 22.7973L31.2786 15.7156L35.7814 12.7123V25.3803L18.0668 37.2244Z" fill="black"/>
<path d="M14.9482 27.1477C15.081 27.1478 15.2103 27.1051 15.3169 27.0259C15.4235 26.9468 15.5018 26.8354 15.5402 26.7083C15.5785 26.5812 15.5749 26.4451 15.5299 26.3202C15.4849 26.1953 15.4008 26.0882 15.2902 26.0148L8.14663 21.2566C8.01006 21.1653 7.84283 21.1321 7.68175 21.1641C7.52066 21.1962 7.37891 21.2909 7.28768 21.4275C7.19645 21.5641 7.1632 21.7313 7.19527 21.8924C7.22733 22.0535 7.32207 22.1952 7.45865 22.2865L14.6063 27.0529C14.7087 27.1168 14.8275 27.1497 14.9482 27.1477Z" fill="black"/>
<path d="M15.29 29.6813L11.1992 26.9582C11.1321 26.9063 11.0551 26.8688 10.9729 26.848C10.8907 26.8272 10.805 26.8235 10.7214 26.8372C10.6377 26.8509 10.5577 26.8817 10.4864 26.9276C10.4151 26.9736 10.3541 27.0337 10.307 27.1042C10.26 27.1748 10.228 27.2543 10.213 27.3378C10.198 27.4212 10.2003 27.5069 10.2199 27.5894C10.2394 27.6719 10.2757 27.7495 10.3266 27.8174C10.3774 27.8853 10.4417 27.942 10.5153 27.984L14.6062 30.7112C14.6738 30.7561 14.7496 30.7873 14.8293 30.8029C14.9089 30.8185 14.9909 30.8183 15.0705 30.8022C15.1501 30.7862 15.2257 30.7546 15.293 30.7093C15.3604 30.664 15.4182 30.6058 15.4631 30.5382C15.508 30.4706 15.5392 30.3947 15.5548 30.3151C15.5704 30.2354 15.5702 30.1535 15.5541 30.0739C15.538 29.9943 15.5064 29.9187 15.4611 29.8513C15.4158 29.7839 15.3577 29.7262 15.29 29.6813Z" fill="black"/>
</svg>
